<svg width="2485" height="1152" viewBox="0 0 2485 1152" fill="none" xmlns="http://www.w3.org/2000/svg">
<path opacity="0.6" d="M2169.93 1007.36L2345.24 742.656L2055.82 110.059L1722.21 168.829L1540.55 310.87L1748.61 914.177L2169.93 1007.36ZM2099.08 989.71L2345.24 742.656L1954.83 127.874L1639.7 245.699L1724.39 836.626L2099.08 989.71ZM1954.82 127.855L2367 606.474L1980.59 1054.33L1548.91 481.23L1954.82 127.855Z" stroke="#C6A67D" stroke-width="0.67" stroke-linecap="round" stroke-linejoin="round"/>
<path opacity="0.5" d="M709.934 1007.36L885.235 742.656L595.817 110.059L262.211 168.829L80.5534 310.87L288.605 914.177L709.934 1007.36ZM639.084 989.71L885.235 742.656L494.831 127.874L179.697 245.699L264.39 836.626L639.084 989.71ZM494.822 127.855L906.997 606.474L520.59 1054.33L88.9066 481.23L494.822 127.855Z" stroke="#C6A67D" stroke-width="0.67" stroke-linecap="round" stroke-linejoin="round"/>
</svg>
