<svg width="175" height="106" viewBox="0 0 175 106" fill="none" xmlns="http://www.w3.org/2000/svg">
<path d="M38.2828 84.2441C37.6963 76.9409 37.1046 69.6404 36.5076 62.3425C36.0453 56.5649 35.5856 50.786 35.1286 45.0058C35.0375 43.8556 34.9582 42.7054 34.8195 41.5632C34.7945 41.4259 34.7386 41.2963 34.6562 41.1841C34.5738 41.072 34.467 40.9803 34.344 40.9162C32.4618 40.3371 30.5637 39.81 28.5309 39.2309C26.7597 61.3041 24.9923 83.2816 23.2171 105.375H39.9669C39.9154 104.808 39.8639 104.265 39.8203 103.721C39.3078 97.2276 38.7953 90.7352 38.2828 84.2441Z " fill="url(#paint0_linear)"/>
<path d="M105.583 77.7263C106.933 77.7871 108.284 77.7764 109.633 77.6944C109.711 76.3186 109.699 74.9391 109.597 73.5649H105.559C105.475 74.951 105.483 76.3413 105.583 77.7263Z " fill="url(#paint0_linear)"/>
<path d="M105.583 72.822C106.106 72.8859 109.316 72.866 109.633 72.7981C109.711 71.421 109.702 70.0404 109.605 68.6646H105.563C105.479 70.0493 105.484 71.438 105.579 72.822H105.583Z " fill="url(#paint0_linear)"/>
<path d="M106.601 67.9537H107.6C107.945 67.9537 108.289 67.9537 108.638 67.9537C108.976 67.9846 109.316 67.9671 109.649 67.9018C109.713 66.5189 109.699 65.1336 109.609 63.7523H107.596C107.247 63.7523 106.903 63.7523 106.554 63.7523C106.211 63.7213 105.865 63.7401 105.528 63.8082V67.9537H106.601Z " fill="url(#paint0_linear)"/>
<path d="M105.603 58.9319C105.579 60.2858 105.623 61.6476 105.579 63.0094C106.94 63.0895 108.305 63.0788 109.665 62.9775V58.9039C108.31 58.8183 106.952 58.8276 105.599 58.9319H105.603Z " fill="url(#paint0_linear)"/>
<path d="M91.4486 73.6328C91.4486 74.9866 91.4486 76.3485 91.4486 77.7024C92.8014 77.792 94.1588 77.7827 95.5102 77.6744V73.6008C94.156 73.5147 92.7974 73.5254 91.4446 73.6328H91.4486Z " fill="url(#paint0_linear)"/>
<path d="M92.4987 72.834H93.4933C93.842 72.834 94.1907 72.834 94.5354 72.834C94.8598 72.8649 95.1869 72.8474 95.5062 72.7821C95.5691 71.3979 95.5546 70.0112 95.4627 68.6286H93.4814C93.1366 68.6286 92.7879 68.6286 92.4432 68.6286C92.1134 68.5975 91.7808 68.6163 91.4565 68.6845V72.83L92.4987 72.834Z " fill="url(#paint0_linear)"/>
<path d="M91.4525 63.8122C91.4525 65.1661 91.4525 66.5279 91.4525 67.8818C92.8053 67.9706 94.1626 67.9626 95.5142 67.8578V63.7842C94.1596 63.7035 92.801 63.7195 91.4486 63.8322L91.4525 63.8122Z " fill="url(#paint0_linear)"/>
<path d="M95.5062 62.9576C95.5667 61.5974 95.5561 60.235 95.4746 58.876C94.1387 58.7928 92.7986 58.8048 91.4644 58.9119V62.9855C92.8106 63.0734 94.1614 63.0641 95.5062 62.9576Z " fill="url(#paint0_linear)"/>
<path d="M95.5062 48.2607C95.5646 46.9005 95.554 45.5382 95.4746 44.1791C94.14 44.096 92.8013 44.108 91.4684 44.215V48.3046C92.8133 48.3916 94.1625 48.3836 95.5062 48.2806V48.2607Z " fill="url(#paint0_linear)"/>
<path d="M95.4587 39.2628C94.1382 39.202 92.8155 39.2126 91.4961 39.2948C91.4157 40.6705 91.4276 42.0502 91.5318 43.4243H95.4944C95.5745 42.0445 95.5613 40.6608 95.4547 39.2828L95.4587 39.2628Z " fill="url(#paint0_linear)"/>
<path d="M95.5062 38.4641C95.569 37.104 95.5584 35.7414 95.4746 34.3825C94.14 34.3012 92.8014 34.3132 91.4684 34.4184V38.492C92.8133 38.5801 94.1627 38.5707 95.5062 38.4641Z " fill="url(#paint0_linear)"/>
<path d="M95.4587 24.5699C94.1382 24.5112 92.8155 24.5219 91.4961 24.6019C91.4177 25.9763 91.4297 27.3545 91.5318 28.7274H95.4944C95.5786 27.3426 95.5707 25.9537 95.4706 24.5699H95.4587Z " fill="url(#paint0_linear)"/>
<path d="M91.4961 19.7016C91.4162 21.072 91.4268 22.4462 91.5278 23.8151C92.8549 23.8789 94.1845 23.8669 95.5102 23.7792V19.6896C94.1727 19.6231 92.8326 19.6324 91.4961 19.7176V19.7016Z " fill="url(#paint0_linear)"/>
<path d="M91.5278 18.9028C92.8484 18.9627 94.1711 18.9507 95.4904 18.8669C95.5709 17.4925 95.559 16.1142 95.4547 14.7414H91.4922C91.4069 16.1383 91.4175 17.5394 91.5239 18.9348L91.5278 18.9028Z " fill="url(#paint0_linear)"/>
<path d="M91.5278 9.10226C92.8483 9.16106 94.171 9.1504 95.4904 9.07032C95.5708 7.69458 95.5589 6.31494 95.4547 4.94082H91.4922C91.407 6.33769 91.4176 7.73882 91.5239 9.13422L91.5278 9.10226Z " fill="url(#paint0_linear)"/>
<path d="M95.4904 4.15405C95.5487 2.79387 95.5381 1.43157 95.4587 0.0724742C94.1241 -0.00856586 92.7855 0.00344244 91.4525 0.108416V4.17801C92.7973 4.26698 94.1467 4.25897 95.4904 4.15405Z " fill="url(#paint0_linear)"/>
<path d="M100.178 77.6384C100.238 76.277 100.228 74.9132 100.146 73.5529C98.8105 73.4718 97.4706 73.4838 96.1363 73.5888V77.6624C97.4824 77.7514 98.8331 77.7434 100.178 77.6384Z " fill="url(#paint0_linear)"/>
<path d="M96.164 68.7125C96.1026 70.0739 96.1119 71.4376 96.1918 72.7981C97.5277 72.8811 98.8677 72.8691 100.202 72.7621V68.7125C98.8575 68.6196 97.5084 68.6196 96.164 68.7125Z " fill="url(#paint0_linear)"/>
<path d="M96.2076 67.9137C97.5281 67.9765 98.8509 67.9658 100.17 67.8818C100.251 66.5061 100.239 65.1264 100.135 63.7523H96.172C96.0916 65.1387 96.1035 66.529 96.2076 67.9137Z " fill="url(#paint0_linear)"/>
<path d="M100.142 58.868C98.822 58.8051 97.4992 58.8158 96.1799 58.8999C96.0995 60.2757 96.1114 61.6553 96.2156 63.0294H100.178C100.26 61.6471 100.248 60.2607 100.142 58.88V58.868Z " fill="url(#paint0_linear)"/>
<path d="M96.1799 54.0156C96.1165 54.6107 96.1403 57.7817 96.2076 58.0972C97.5435 58.1793 98.8833 58.1687 100.218 58.0652V53.9917C98.8673 53.9101 97.5129 53.9221 96.164 54.0276L96.1799 54.0156Z " fill="url(#paint0_linear)"/>
<path d="M96.2195 48.3206H100.182C100.27 46.9375 100.27 45.5502 100.182 44.1671H96.2195C96.1258 45.5578 96.1205 46.9531 96.2037 48.3445L96.2195 48.3206Z " fill="url(#paint0_linear)"/>
<path d="M100.234 43.3723V41.9945C100.234 41.5432 100.234 41.0919 100.234 40.6406C100.251 40.1839 100.244 39.7266 100.21 39.2708C98.8669 39.2031 97.5212 39.2164 96.1799 39.3107V43.4163C97.5252 43.488 98.8737 43.4773 100.218 43.3843L100.234 43.3723Z " fill="url(#paint0_linear)"/>
<path d="M100.206 38.4721C100.264 37.1105 100.254 35.7469 100.174 34.3865C98.8395 34.3074 97.5011 34.3194 96.168 34.4224V38.496C97.5129 38.581 98.862 38.573 100.206 38.4721Z " fill="url(#paint0_linear)"/>
<path d="M100.206 33.5718C100.265 32.2117 100.256 30.8494 100.178 29.4902C98.8435 29.41 97.5051 29.4207 96.172 29.5221V33.5957C97.5156 33.6806 98.8633 33.6726 100.206 33.5718Z " fill="url(#paint0_linear)"/>
<path d="M100.162 24.5739C98.8418 24.5153 97.5191 24.5259 96.1997 24.6059C96.1213 25.9803 96.1332 27.3585 96.2354 28.7314H100.198C100.271 27.3499 100.253 25.9649 100.142 24.5859L100.162 24.5739Z " fill="url(#paint0_linear)"/>
<path d="M96.1997 19.7216C96.1414 21.0817 96.1519 22.444 96.2314 23.8031C97.566 23.8842 98.9046 23.8722 100.238 23.7672V19.7096C98.8926 19.6246 97.5435 19.6326 96.1997 19.7335V19.7216Z " fill="url(#paint0_linear)"/>
<path d="M100.162 14.7773C98.8418 14.7176 97.5192 14.7269 96.1997 14.8053C96.1214 16.1811 96.1333 17.5606 96.2354 18.9348H100.198C100.282 17.55 100.274 16.1611 100.174 14.7773H100.162Z " fill="url(#paint0_linear)"/>
<path d="M100.206 13.9786C100.265 12.6185 100.256 11.2562 100.178 9.89702C98.8436 9.81479 97.505 9.82546 96.172 9.92897V13.9986C97.5156 14.0835 98.8633 14.0755 100.206 13.9746V13.9786Z " fill="url(#paint0_linear)"/>
<path d="M96.2433 9.12622H100.206C100.293 7.74447 100.293 6.35851 100.206 4.97676H96.2433C96.1558 6.35851 96.1558 7.74447 96.2433 9.12622Z " fill="url(#paint0_linear)"/><path d="M96.2037 0.12838C96.1455 1.48857 96.1561 2.85086 96.2354 4.20996C97.57 4.28894 98.9085 4.27694 100.242 4.17402V0.112414C98.8966 0.0275093 97.5475 0.0355145 96.2037 0.136375V0.12838Z " fill="url(#paint0_linear)"/>
<path d="M100.935 77.7183C102.255 77.779 103.578 77.7683 104.898 77.6864C104.978 76.3106 104.966 74.931 104.862 73.5569H100.899C100.815 74.943 100.823 76.3333 100.923 77.7183H100.935Z " fill="url(#paint0_linear)"/>
<path d="M104.917 72.7741C104.976 71.4112 104.965 70.0463 104.886 68.6845C103.55 68.6056 102.21 68.6176 100.876 68.7205V72.7941C102.208 72.8829 103.546 72.879 104.878 72.7821L104.917 72.7741Z " fill="url(#paint0_linear)"/>
<path d="M104.917 67.8738C104.976 66.5123 104.965 65.1487 104.886 63.7882C103.55 63.706 102.21 63.7167 100.876 63.8202V67.9137C102.209 67.996 103.546 67.9854 104.878 67.8818L104.917 67.8738Z " fill="url(#paint0_linear)"/>
<path d="M104.87 58.872C103.549 58.8133 102.227 58.824 100.907 58.9039C100.826 60.2796 100.836 61.6592 100.939 63.0334H104.901C104.97 61.6489 104.946 60.2613 104.83 58.88L104.87 58.872Z " fill="url(#paint0_linear)"/>
<path d="M104.87 53.9717C103.549 53.9108 102.227 53.9215 100.907 54.0036C100.83 55.3795 100.843 56.759 100.947 58.1331H104.909C104.977 56.7484 104.951 55.3607 104.83 53.9797L104.87 53.9717Z " fill="url(#paint0_linear)"/>
<path d="M100.848 44.231C100.788 45.5912 100.8 46.9536 100.883 48.3126C102.218 48.3939 103.557 48.3818 104.89 48.2766V44.203C103.543 44.1191 102.193 44.1284 100.848 44.231Z " fill="url(#paint0_linear)"/>
<path d="M100.848 39.3307C100.788 40.6922 100.8 42.056 100.883 43.4163C102.218 43.4944 103.557 43.481 104.89 43.3763V39.3027C103.543 39.2188 102.193 39.2281 100.848 39.3307Z " fill="url(#paint0_linear)"/>
<path d="M104.874 38.484C104.933 37.1239 104.924 35.7616 104.846 34.4025C103.51 34.3203 102.17 34.3309 100.836 34.4344V38.504C102.181 38.5881 103.53 38.5815 104.874 38.484Z " fill="url(#paint0_linear)"/>
<path d="M100.852 29.5301C100.794 30.8903 100.804 32.2526 100.883 33.6117C102.218 33.6899 103.557 33.6752 104.89 33.5678V29.5102C103.545 29.426 102.196 29.4327 100.852 29.5301Z " fill="url(#paint0_linear)"/>
<path d="M104.874 28.6835C104.937 28.0724 104.913 24.9174 104.846 24.6019C103.511 24.5229 102.173 24.5349 100.84 24.6378V28.7074C102.183 28.7923 103.531 28.7843 104.874 28.6835Z " fill="url(#paint0_linear)"/>
<path d="M100.852 9.93695C100.791 11.2971 100.802 12.6595 100.883 14.0185C102.218 14.0985 103.557 14.0851 104.89 13.9786V9.909C103.545 9.82311 102.195 9.83244 100.852 9.93695Z " fill="url(#paint0_linear)"/>
<path d="M104.878 5.0167C103.536 4.9286 102.19 4.9286 100.848 5.0167V9.12224H104.878V5.0167Z " fill="url(#paint0_linear)"/>
<path d="M104.83 0.0884525C103.51 0.0298117 102.187 0.0404707 100.868 0.120397C100.788 1.49477 100.799 2.87293 100.899 4.2459H104.862C104.943 2.86092 104.933 1.472 104.83 0.0884525Z " fill="url(#paint0_linear)"/>
<path d="M114.34 38.48C114.4 37.1198 114.388 35.7574 114.305 34.3985C112.971 34.3192 111.634 34.3313 110.302 34.4344V38.508C111.647 38.5919 112.997 38.5826 114.34 38.48Z " fill="url(#paint0_linear)"/>
<path d="M110.358 43.4243C111.678 43.483 113.001 43.475 114.321 43.4003C114.4 42.0246 114.389 40.6451 114.289 39.2708H110.326C110.248 40.6545 110.257 42.0418 110.354 43.4243H110.358Z " fill="url(#paint0_linear)"/>
<path d="M110.31 49.1433C110.248 50.5034 110.259 51.8659 110.342 53.2249C111.677 53.304 113.015 53.292 114.348 53.1889V49.1033C113.003 49.0175 111.654 49.0268 110.31 49.1313V49.1433Z " fill="url(#paint0_linear)"/>
<path d="M114.273 53.9917C112.952 53.9328 111.63 53.9435 110.31 54.0236C110.233 55.3995 110.246 56.779 110.35 58.1531H114.313C114.398 56.763 114.39 55.3687 114.289 53.9797L114.273 53.9917Z " fill="url(#paint0_linear)"/>
<path d="M110.338 63.0374C111.659 63.1001 112.981 63.0894 114.301 63.0055C114.379 61.631 114.367 60.2528 114.265 58.88H110.302C110.228 60.2614 110.245 61.6463 110.354 63.0254L110.338 63.0374Z " fill="url(#paint0_linear)"/>
<path d="M110.338 67.9377C111.659 67.9975 112.981 67.9882 114.301 67.9098C114.382 66.5328 114.372 65.1518 114.269 63.7763H110.306C110.231 65.155 110.247 66.5372 110.354 67.9137L110.338 67.9377Z " fill="url(#paint0_linear)"/>
<path d="M109.585 53.9917C108.265 53.9329 106.942 53.9435 105.623 54.0236C105.542 55.3993 105.554 56.779 105.658 58.1531H109.621C109.705 56.767 109.697 55.3767 109.597 53.9917H109.585Z " fill="url(#paint0_linear)"/>
<path d="M110.318 68.6885C110.233 70.0717 110.233 71.4589 110.318 72.842H114.305V68.6885H110.318Z " fill="url(#paint0_linear)"/>
<path d="M114.281 5.00072C112.946 4.93758 111.608 4.95224 110.275 5.04464V6.4105C110.275 6.86179 110.275 7.31309 110.275 7.76438C110.275 8.21567 110.251 8.68293 110.299 9.13022C111.632 9.20521 112.969 9.19054 114.301 9.0863C114.388 7.72174 114.384 6.35276 114.289 4.98874L114.281 5.00072Z " fill="url(#paint0_linear)"/>
<path d="M100.848 14.8372C100.837 14.8778 100.831 14.9192 100.828 14.9611C100.828 16.1831 100.828 17.4092 100.828 18.6313C100.837 18.7239 100.857 18.815 100.887 18.9028C102.219 18.9972 103.555 18.9972 104.886 18.9028V14.7973C103.541 14.7116 102.191 14.7209 100.848 14.8253V14.8372Z " fill="url(#paint0_linear)"/>
<path d="M100.848 19.7335C100.836 19.7603 100.828 19.7885 100.824 19.8174C100.824 21.0555 100.824 22.2935 100.824 23.5316C100.833 23.6241 100.853 23.7153 100.883 23.8031C102.216 23.8908 103.554 23.8841 104.886 23.7832V19.7096C103.542 19.6227 102.194 19.6307 100.852 19.7335H100.848Z " fill="url(#paint0_linear)"/>
<path d="M110.306 9.93695C110.244 11.2971 110.254 12.6596 110.338 14.0185C111.644 14.0986 112.953 14.0853 114.257 13.9786V9.909C112.937 9.82444 111.613 9.83377 110.295 9.93695H110.306Z " fill="url(#paint0_linear)"/>
<path d="M110.306 14.8372C110.244 16.1974 110.257 17.5601 110.346 18.9188C111.65 18.9991 112.959 18.9858 114.261 18.8789V14.7973C112.941 14.7119 111.617 14.7226 110.299 14.8293L110.306 14.8372Z " fill="url(#paint0_linear)"/>
<path d="M114.241 28.6835C114.301 27.3233 114.291 25.9611 114.214 24.6019C112.908 24.5228 111.599 24.5349 110.295 24.6378V28.7074C111.609 28.7924 112.928 28.7844 114.241 28.6835Z " fill="url(#paint0_linear)"/>
<path d="M109.561 9.0863C109.62 7.72611 109.609 6.36382 109.53 5.00472C108.224 4.92563 106.915 4.93764 105.611 5.04066V9.11026C106.927 9.19527 108.247 9.18726 109.561 9.0863Z " fill="url(#paint0_linear)"/>
<path d="M105.623 9.93296C105.563 10.548 105.583 13.699 105.654 14.0145C106.96 14.0948 108.269 14.0841 109.573 13.9826V9.91299C108.258 9.82889 106.938 9.83557 105.623 9.93296Z " fill="url(#paint0_linear)"/>
<path d="M109.561 18.8829C109.62 17.5227 109.609 16.1604 109.53 14.8013C108.224 14.7221 106.915 14.7341 105.611 14.8372V18.9108C106.927 18.9947 108.247 18.9854 109.561 18.8829Z " fill="url(#paint0_linear)"/>
<path d="M109.561 33.5798C109.622 32.2196 109.611 30.8572 109.53 29.4982C108.224 29.4201 106.915 29.4335 105.611 29.5381V33.6077C106.931 33.6943 108.255 33.6849 109.573 33.5798H109.561Z " fill="url(#paint0_linear)"/>
<path d="M105.642 34.4144C105.565 35.7848 105.572 37.1587 105.666 38.528C106.966 38.5843 108.267 38.5736 109.565 38.496V34.3945C108.258 34.3323 106.949 34.339 105.642 34.4144Z " fill="url(#paint0_linear)"/>
<path d="M124.603 64.0878V65.2859C124.603 65.6852 124.603 66.0846 124.603 66.5119C124.583 66.9117 124.597 67.3125 124.643 67.7101C124.723 67.7349 124.805 67.7523 124.889 67.762H127.968C128.056 67.7453 128.143 67.7185 128.225 67.6821V64.0358C127.018 63.9649 125.808 63.9783 124.603 64.0758V64.0878Z " fill="url(#paint0_linear)"/>
<path d="M123.561 71.6758V70.7573C123.561 70.4538 123.561 70.1462 123.561 69.8427C123.599 69.5437 123.58 69.2402 123.506 68.9481C122.311 68.8794 121.112 68.8967 119.92 69V70.1981C119.92 70.5975 119.92 70.9969 119.92 71.4242C119.894 71.8239 119.907 72.2252 119.959 72.6223C121.16 72.7223 122.366 72.7143 123.565 72.5984V71.6798L123.561 71.6758Z " fill="url(#paint0_linear)"/>
<path d="M121.184 67.7899C121.58 67.7899 121.976 67.7899 122.353 67.7899C122.732 67.8142 123.113 67.8022 123.49 67.754C123.59 66.5302 123.596 65.3006 123.51 64.0758C122.322 63.9909 121.129 64.0015 119.943 64.1077C119.871 65.3362 119.891 66.5685 120.003 67.7939L121.184 67.7899Z " fill="url(#paint0_linear)"/>
<path d="M128.067 62.8737C128.11 62.8737 128.166 62.8258 128.205 62.8058C128.287 61.5902 128.28 60.3702 128.186 59.1555C126.997 59.0943 125.806 59.105 124.619 59.1875V62.8737C125.763 62.7654 126.914 62.7613 128.059 62.8617L128.067 62.8737Z " fill="url(#paint0_linear)"/>
<path d="M115.315 72.6862C116.417 72.6862 117.526 72.6862 118.636 72.6862C118.719 72.6862 118.802 72.6024 118.838 72.5824C118.775 71.3851 118.775 70.1853 118.838 68.9881C117.65 68.9127 116.46 68.9047 115.272 68.9641C115.19 70.2065 115.2 71.4534 115.303 72.6942L115.315 72.6862Z " fill="url(#paint0_linear)"/>
<path d="M134.145 23.5835C135.31 23.5835 136.487 23.5835 137.656 23.5635C137.741 22.3506 137.732 21.1327 137.628 19.9212H134.11C134.025 21.141 134.037 22.3656 134.145 23.5835Z " fill="url(#paint0_linear)"/>
<path d="M137.68 28.4039C137.738 27.2195 137.728 26.0327 137.648 24.8495C136.46 24.7675 135.268 24.7782 134.082 24.8814V28.4279C135.283 28.513 136.488 28.505 137.688 28.4039H137.68Z " fill="url(#paint0_linear)"/>
<path d="M137.68 33.3242C137.76 32.1189 137.748 30.9092 137.644 29.7058H134.102V33.3441C135.29 33.406 136.481 33.3993 137.668 33.3242H137.68Z " fill="url(#paint0_linear)"/>
<path d="M134.114 34.678C134.056 35.8637 134.065 37.0518 134.141 38.2364C135.329 38.3151 136.521 38.3031 137.708 38.2005V34.6541C136.508 34.569 135.304 34.5771 134.106 34.678H134.114Z " fill="url(#paint0_linear)"/>
<path d="M137.731 52.8934C137.731 51.7192 137.731 50.5291 137.731 49.3509C136.527 49.2652 135.317 49.2746 134.114 49.3789V52.9253C135.324 53.0137 136.539 53.0031 137.747 52.8934H137.731Z " fill="url(#paint0_linear)"/>
<path d="M134.121 15.025C134.052 16.222 134.052 17.4222 134.121 18.6193C135.309 18.6992 136.501 18.6885 137.688 18.5873V14.993C136.459 15.013 135.271 14.973 134.094 15.017L134.121 15.025Z " fill="url(#paint0_linear)"/>
<path d="M115.228 64.0958C115.228 65.2939 115.228 66.52 115.228 67.7261C116.415 67.814 117.608 67.8059 118.794 67.7021V64.0678C117.607 63.9778 116.414 63.9872 115.228 64.0958Z " fill="url(#paint0_linear)"/>
<path d="M124.627 54.2912C124.567 55.4769 124.579 56.6653 124.663 57.8496C125.851 57.9307 127.043 57.9187 128.229 57.8136V54.2632C127.03 54.1793 125.825 54.1886 124.627 54.2912Z " fill="url(#paint0_linear)"/>
<path d="M123.533 57.8176C123.594 56.6198 123.579 55.4193 123.49 54.2233C122.301 54.2433 121.112 54.1993 119.924 54.2512V57.8456C121.126 57.9319 122.333 57.9225 123.533 57.8176Z " fill="url(#paint0_linear)"/>
<path d="M123.486 34.6541C122.311 34.5951 121.133 34.6057 119.959 34.686C119.881 35.8833 119.893 37.0849 119.995 38.2804H123.51C123.594 37.0701 123.586 35.8551 123.486 34.6461V34.6541Z " fill="url(#paint0_linear)"/>
<path d="M123.537 49.323C122.309 49.323 121.132 49.303 119.971 49.323C119.887 50.5374 119.898 51.7565 120.003 52.9692H123.569C123.569 51.7272 123.593 50.5291 123.541 49.307L123.537 49.323Z " fill="url(#paint0_linear)"/>
<path d="M137.664 57.8376C137.744 56.6404 137.734 55.4388 137.632 54.2432C136.444 54.1806 135.253 54.1953 134.066 54.2872V57.8815C135.254 57.9487 136.445 57.938 137.632 57.8496L137.664 57.8376Z " fill="url(#paint0_linear)"/>
<path d="M132.865 64.0438C131.717 63.9849 130.566 63.9929 129.418 64.0678C129.338 65.2983 129.349 66.533 129.45 67.762H132.865C132.955 66.5243 132.955 65.2816 132.865 64.0438Z " fill="url(#paint0_linear)"/>
<path d="M115.252 62.8457C116.416 62.767 117.584 62.7764 118.747 62.8737C118.833 61.6286 118.82 60.3785 118.707 59.1356H115.252V62.8457Z " fill="url(#paint0_linear)"/>
<path d="M124.714 19.9891C124.656 21.1749 124.666 22.3631 124.746 23.5475C125.908 23.6258 127.074 23.6124 128.233 23.5076V19.9891C127.061 19.905 125.885 19.9144 124.714 20.0171V19.9891Z " fill="url(#paint0_linear)"/>
<path d="M124.714 34.682C124.655 35.8677 124.664 37.0559 124.742 38.2404C125.903 38.3207 127.069 38.31 128.229 38.2085V34.6621C127.059 34.5779 125.884 34.5846 124.714 34.682Z " fill="url(#paint0_linear)"/>
<path d="M124.714 29.7857C124.654 30.9835 124.666 32.1838 124.75 33.3801C125.899 33.3801 127.056 33.404 128.229 33.3561V29.7618C127.059 29.6787 125.884 29.6867 124.714 29.7857Z " fill="url(#paint0_linear)"/>
<path d="M128.217 28.4119C128.277 27.2261 128.265 26.0378 128.182 24.8535C127.021 24.7733 125.857 24.7867 124.698 24.8934V28.4398C125.871 28.5269 127.049 28.5202 128.221 28.4199L128.217 28.4119Z " fill="url(#paint0_linear)"/>
<path d="M124.683 49.3909C124.683 50.569 124.663 51.7552 124.683 52.9333C125.858 53.0203 127.039 53.0123 128.213 52.9093V49.3589C127.032 49.2725 125.846 49.2831 124.667 49.3909H124.683Z " fill="url(#paint0_linear)"/>
<path d="M132.865 54.2193C131.724 54.2193 130.575 54.2193 129.438 54.2193C129.351 55.4375 129.359 56.6606 129.462 57.8775H132.897C132.983 56.6592 132.972 55.4359 132.865 54.2193Z " fill="url(#paint0_linear)"/>
<path d="M132.865 44.4187C131.724 44.4187 130.579 44.4187 129.438 44.4187C129.353 45.637 129.361 46.8599 129.462 48.0769H132.897C132.981 46.8572 132.97 45.6328 132.865 44.4147V44.4187Z " fill="url(#paint0_linear)"/>
<path d="M129.462 38.2684C130.624 38.3296 131.788 38.315 132.949 38.2245C132.949 37.0263 132.972 35.8282 132.925 34.6301H129.434C129.348 35.8415 129.354 37.0577 129.45 38.2684H129.462Z " fill="url(#paint0_linear)"/>
<path d="M129.414 29.7937C129.355 30.9915 129.368 32.1919 129.454 33.3881C130.603 33.3881 131.76 33.412 132.933 33.3681V29.7737C131.757 29.6867 130.577 29.6933 129.402 29.7937H129.414Z " fill="url(#paint0_linear)"/>
<path d="M132.925 19.9212C131.736 19.9212 130.579 19.9212 129.442 19.9212C129.354 21.138 129.361 22.3598 129.462 23.5755H132.949C132.921 22.3414 132.96 21.1473 132.913 19.9212H132.925Z " fill="url(#paint0_linear)"/>
<path d="M132.865 15.025C131.724 15.025 130.575 15.025 129.438 15.025C129.353 16.2419 129.362 17.4637 129.465 18.6792H132.897C132.981 17.4608 132.97 16.2377 132.865 15.021V15.025Z " fill="url(#paint0_linear)"/>
<path d="M115.268 54.2872V57.8376C116.439 57.928 117.615 57.928 118.786 57.8376V54.3191C117.613 54.1978 116.431 54.1871 115.256 54.2872H115.268Z " fill="url(#paint0_linear)"/>
<path d="M115.24 49.3989C115.24 50.577 115.24 51.7632 115.24 52.9413C116.416 53.0271 117.596 53.0177 118.77 52.9133V49.3669C117.589 49.2804 116.403 49.2911 115.224 49.3989H115.24Z " fill="url(#paint0_linear)"/>
<path d="M119.955 10.2005C119.894 11.3849 119.905 12.5719 119.987 13.755C121.147 13.8365 122.312 13.8245 123.47 13.719V10.1726C122.3 10.0864 121.124 10.0957 119.955 10.2005Z " fill="url(#paint0_linear)"/>
<path d="M120.011 18.6912C121.148 18.6912 122.297 18.6912 123.434 18.6912C123.522 17.4756 123.512 16.255 123.407 15.0409H119.979C119.893 16.2579 119.904 17.4799 120.011 18.6952V18.6912Z " fill="url(#paint0_linear)"/>
<path d="M123.458 33.3202C123.517 32.1344 123.506 30.9463 123.426 29.7618C122.266 29.6826 121.102 29.6946 119.943 29.7977V33.3441C121.114 33.4292 122.289 33.4212 123.458 33.3202Z " fill="url(#paint0_linear)"/>
<path d="M115.268 39.5903V43.1846C116.456 43.1846 117.609 43.2046 118.782 43.1607V39.5903C117.609 39.4796 116.429 39.4796 115.256 39.5903H115.268Z " fill="url(#paint0_linear)"/>
<path d="M115.268 34.694C115.209 35.8797 115.22 37.0679 115.299 38.2524C116.461 38.3317 117.627 38.3197 118.786 38.2165V34.67C117.611 34.5843 116.43 34.5923 115.256 34.694H115.268Z " fill="url(#paint0_linear)"/>
<path d="M115.268 24.8974C115.209 26.0818 115.219 27.2687 115.299 28.4518C116.461 28.5332 117.627 28.5212 118.786 28.4159V24.8695C117.611 24.7827 116.43 24.7921 115.256 24.8974H115.268Z " fill="url(#paint0_linear)"/>
<path d="M115.268 19.9971C115.208 21.1829 115.22 22.3712 115.303 23.5555C116.464 23.6338 117.628 23.6204 118.786 23.5156V19.9891C117.615 19.9049 116.438 19.9143 115.268 20.0171V19.9971Z " fill="url(#paint0_linear)"/>
<path d="M115.268 15.0968C115.209 16.2826 115.219 17.4708 115.299 18.6552C116.461 18.7347 117.627 18.7227 118.786 18.6193V15.0729C117.615 14.9875 116.438 14.9956 115.268 15.0968Z " fill="url(#paint0_linear)"/>
<path d="M115.24 5.30425C115.24 6.48239 115.24 7.66853 115.24 8.89859C116.429 8.87862 117.617 8.91856 118.77 8.87463V5.28028C117.591 5.19149 116.406 5.19951 115.228 5.30425H115.24Z " fill="url(#paint0_linear)"/>
<path d="M141.789 37.6094C141.845 36.8326 141.836 36.0524 141.761 35.2771C140.97 35.1949 140.172 35.2056 139.384 35.309V37.6294C140.173 37.7131 140.969 37.7064 141.757 37.6094H141.789Z " fill="url(#paint0_linear)"/>
<path d="M139.412 25.5045V27.8288C140.202 27.9119 141 27.9052 141.789 27.8088V25.5164C140.99 25.4006 140.18 25.3966 139.38 25.5045H139.412Z " fill="url(#paint0_linear)"/>
<path d="M151.248 22.9085C151.304 22.1317 151.294 21.3515 151.22 20.5762C150.429 20.4974 149.631 20.5095 148.842 20.6122V22.9325C149.632 23.015 150.428 23.0069 151.216 22.9085H151.248Z " fill="url(#paint0_linear)"/>
<path d="M151.204 25.4605H148.898C148.811 26.2569 148.811 27.0604 148.898 27.8568H151.176C151.281 27.0614 151.28 26.2555 151.172 25.4605H151.204Z " fill="url(#paint0_linear)"/><path d="M151.236 32.7211C151.312 31.9342 151.3 31.1411 151.2 30.3568C150.424 30.2967 149.644 30.3101 148.87 30.3968V32.769C149.662 32.8327 150.458 32.822 151.248 32.7371L151.236 32.7211Z " fill="url(#paint0_linear)"/>
<path d="M155.848 25.4645C155.078 25.4075 154.303 25.4155 153.534 25.4885C153.456 26.2858 153.465 27.0894 153.562 27.8847H155.864C155.948 27.0799 155.943 26.2681 155.848 25.4645Z " fill="url(#paint0_linear)"/>
<path d="M141.702 20.5602C140.931 20.5027 140.157 20.5134 139.388 20.5922C139.309 21.383 139.32 22.1801 139.419 22.9684H141.722C141.808 22.1679 141.805 21.3602 141.714 20.5602H141.702Z " fill="url(#paint0_linear)"/>
<path d="M146.433 32.7091C146.49 31.9309 146.48 31.1491 146.401 30.3728C145.646 30.2949 144.884 30.3069 144.131 30.4087V32.7331C144.897 32.817 145.669 32.8089 146.433 32.7091Z " fill="url(#paint0_linear)"/>
<path d="M146.386 35.2571C145.644 35.2015 144.899 35.2122 144.159 35.2891C144.08 36.0866 144.092 36.8905 144.194 37.6853H146.409C146.498 36.8781 146.494 36.0634 146.398 35.2571H146.386Z " fill="url(#paint0_linear)"/>
<path d="M146.433 18.5754C146.488 17.7971 146.477 17.0155 146.401 16.239C145.646 16.1614 144.884 16.1735 144.131 16.275V18.5953C144.9 18.6791 145.677 18.6723 146.445 18.5754H146.433Z " fill="url(#paint0_linear)"/>
<path d="M144.139 25.5124C144.078 26.2894 144.092 27.0704 144.178 27.8448C144.933 27.9223 145.694 27.9089 146.445 27.8048V25.4805C145.678 25.3961 144.903 25.4068 144.139 25.5124Z " fill="url(#paint0_linear)"/>
<path d="M172.955 27.2697C173.376 27.2927 173.799 27.2794 174.219 27.2298C174.254 26.8141 174.239 26.3958 174.175 25.9837C173.766 25.934 173.352 25.934 172.943 25.9837C172.911 26.4064 172.911 26.831 172.943 27.2537L172.955 27.2697Z " fill="url(#paint0_linear)"/><path d="M160.056 27.2497V26.0516C159.637 26.0375 159.218 26.0495 158.8 26.0875V27.2497C159.222 27.2904 159.647 27.2904 160.068 27.2497H160.056Z " fill="url(#paint0_linear)"/>
<path d="M160.056 32.13V30.9719C159.64 30.936 159.221 30.936 158.804 30.9719V32.17C159.222 32.1889 159.641 32.1755 160.056 32.13Z " fill="url(#paint0_linear)"/>
<path d="M160.056 22.3454C160.108 21.9558 160.108 21.5609 160.056 21.1713H158.82V22.3454H160.056Z " fill="url(#paint0_linear)"/>
<path d="M164.744 23.8511V22.653C164.348 22.6225 163.949 22.6372 163.555 22.6969V23.8471C163.955 23.8878 164.357 23.8891 164.756 23.8511H164.744Z " fill="url(#paint0_linear)"/>
<path d="M164.744 27.2258V26.0476C164.348 26.0212 163.949 26.0359 163.555 26.0915V27.2897C163.957 27.3108 164.359 27.2894 164.756 27.2258H164.744Z " fill="url(#paint0_linear)"/>
<path d="M137.466 44.2829V43.1287C137.051 43.0909 136.633 43.0909 136.218 43.1287V44.3269C136.634 44.3464 137.052 44.3317 137.466 44.2829Z " fill="url(#paint0_linear)"/>
<path d="M137.62 59.1276C136.85 59.0704 136.076 59.0784 135.306 59.1515C135.224 59.9487 135.233 60.7527 135.334 61.5478H137.62C137.708 60.7515 137.708 59.9478 137.62 59.1515V59.1276Z " fill="url(#paint0_linear)"/>
<path d="M83.8444 9.40179C83.7434 8.03284 83.7328 6.65864 83.8127 5.28827C85.0567 5.20828 86.3039 5.19229 87.5494 5.24035V0.0485129C87.2663 0.0413139 86.984 0.0804187 86.7133 0.164322C62.7952 7.98402 38.8878 15.8197 14.9908 23.6713C10.2595 25.2209 5.52821 26.7625 0.796908 28.2961C0.590855 28.364 0.400651 28.4518 0.00439453 28.6076C0.499716 28.7713 0.820681 28.8951 1.15354 29.0069L80.3217 51.6234C82.4337 52.2264 84.5379 52.8415 86.6618 53.3846C86.9601 53.4584 87.2661 53.4959 87.5732 53.4964V43.4323C86.7411 43.4882 84.4547 43.5002 83.8682 43.4323C83.7672 42.0633 83.7566 40.6891 83.8365 39.3187C85.0804 39.2387 86.3276 39.2227 87.5732 39.2708V19.1105C86.7411 19.1664 84.4547 19.1784 83.8682 19.1105C83.7672 17.7416 83.7566 16.3674 83.8365 14.997C85.0804 14.917 86.3276 14.901 87.5732 14.9491V9.39381C86.7173 9.44972 84.4309 9.4617 83.8444 9.40179Z " fill="url(#paint0_linear)"/>
<path d="M82.7824 28.8073C81.4568 28.8965 80.1272 28.9099 78.8001 28.8472C78.6991 27.4782 78.6885 26.104 78.7684 24.7337C80.1048 24.649 81.4448 24.6384 82.7824 24.7017V28.8073Z " fill="url(#paint0_linear)"/>
<path d="M82.7824 23.8031C81.4567 23.8909 80.1271 23.9029 78.8001 23.8391C78.699 22.4701 78.6885 21.0959 78.7684 19.7256C80.1048 19.6404 81.4449 19.6311 82.7824 19.6976V23.8031Z " fill="url(#paint0_linear)"/>
<path d="M83.8444 72.826C83.7434 71.4571 83.7328 70.0829 83.8127 68.7125C85.0567 68.6325 86.3039 68.6165 87.5494 68.6646V55.9046C87.2388 55.9103 86.9291 55.8699 86.6301 55.7848C71.9131 51.6234 57.2094 47.434 42.5188 43.2166C42.2256 43.1327 41.9284 43.0768 41.5242 42.981C40.8505 47.7734 40.1214 52.4101 39.5825 57.0748C39.2972 59.507 40.4979 61.5438 41.9601 63.3649C44.4406 66.4241 47.682 68.4729 51.1374 70.2061C57.85 73.5728 65.0064 75.398 72.3807 76.5402C77.4008 77.3089 82.4717 77.6908 87.5494 77.6824V72.818C86.7173 72.87 84.4309 72.8819 83.8444 72.818V72.826Z " fill="url(#paint0_linear)"/>
<path d="M82.7824 67.8858C81.4568 67.9751 80.1272 67.9884 78.8001 67.9257C78.6991 66.5568 78.6885 65.1826 78.7684 63.8122C80.1048 63.7271 81.4449 63.7177 82.7824 63.7842V67.8858Z" fill="url(#paint0_linear)"/>
<defs>
<linearGradient id="paint0_linear" x1="-0.547036" y1="50.5279" x2="173.719" y2="50.5279" gradientUnits="userSpaceOnUse">
<stop stop-color="#8A511C"/>
<stop offset="0.23" stop-color="#AB821D"/>
<stop offset="0.43" stop-color="#F7F67E"/>
<stop offset="0.53" stop-color="#F7F67E"/>
<stop offset="0.58" stop-color="#F7F67E"/>
<stop offset="0.82" stop-color="#AB821D"/>
<stop offset="1" stop-color="#8A511C"/>
</linearGradient>
</defs>
</svg>
