<svg width="446" height="270" viewBox="0 0 446 270" fill="none" xmlns="http://www.w3.org/2000/svg">
<path d="M97.8819 215.401C96.3824 196.728 94.8694 178.062 93.3429 159.402C92.1609 144.63 90.9856 129.854 89.8171 115.075C89.5841 112.134 89.3814 109.193 89.0268 106.272C88.9628 105.922 88.82 105.59 88.6093 105.303C88.3985 105.017 88.1255 104.782 87.811 104.618C82.9985 103.138 78.1454 101.79 72.9478 100.309C68.419 156.747 63.9002 212.94 59.3612 269.429H102.188C102.056 267.979 101.924 266.59 101.813 265.202C100.503 248.598 99.1923 231.998 97.8819 215.401ZM269.959 198.736C273.409 198.891 276.865 198.864 280.313 198.654C280.514 195.137 280.483 191.61 280.222 188.096H269.898C269.682 191.64 269.702 195.195 269.959 198.736ZM269.959 186.197C271.296 186.36 279.503 186.309 280.313 186.135C280.514 182.615 280.49 179.084 280.242 175.567H269.908C269.692 179.107 269.706 182.658 269.948 186.197H269.959ZM272.562 173.749H275.116C275.997 173.749 276.879 173.749 277.77 173.749C278.633 173.828 279.503 173.783 280.354 173.616C280.517 170.081 280.483 166.538 280.252 163.007H275.106C274.214 163.007 273.332 163.007 272.441 163.007C271.564 162.927 270.68 162.975 269.817 163.15V173.749H272.562ZM270.009 150.682C269.948 154.143 270.06 157.625 269.948 161.107C273.428 161.312 276.918 161.285 280.394 161.026V150.61C276.932 150.391 273.458 150.415 269.999 150.682H270.009ZM233.819 188.27C233.819 191.731 233.819 195.213 233.819 198.675C237.278 198.904 240.748 198.88 244.204 198.603V188.188C240.741 187.968 237.268 187.995 233.809 188.27H233.819ZM236.504 186.227H239.047C239.938 186.227 240.83 186.227 241.711 186.227C242.541 186.306 243.377 186.262 244.194 186.094C244.355 182.555 244.317 179.01 244.082 175.475H239.016C238.135 175.475 237.243 175.475 236.362 175.475C235.519 175.395 234.668 175.443 233.839 175.618V186.217L236.504 186.227ZM233.829 163.16C233.829 166.621 233.829 170.104 233.829 173.565C237.288 173.792 240.758 173.772 244.214 173.504V163.088C240.75 162.882 237.277 162.923 233.819 163.211L233.829 163.16ZM244.194 160.975C244.348 157.497 244.321 154.013 244.113 150.539C240.697 150.326 237.271 150.357 233.859 150.631V161.046C237.301 161.271 240.755 161.247 244.194 160.975ZM244.194 123.397C244.343 119.919 244.316 116.436 244.113 112.961C240.7 112.748 237.277 112.779 233.87 113.053V123.509C237.308 123.732 240.758 123.711 244.194 123.448V123.397ZM244.072 100.391C240.696 100.235 237.314 100.262 233.94 100.472C233.735 103.99 233.765 107.518 234.032 111.031H244.163C244.368 107.503 244.334 103.965 244.062 100.442L244.072 100.391ZM244.194 98.3485C244.354 94.8709 244.327 91.3871 244.113 87.9125C240.7 87.7045 237.278 87.7352 233.87 88.0044V98.4199C237.308 98.6451 240.758 98.6212 244.194 98.3485ZM244.072 62.8232C240.696 62.6732 237.314 62.7004 233.94 62.9049C233.74 66.4192 233.77 69.943 234.032 73.4532H244.163C244.379 69.9125 244.358 66.3612 244.103 62.8232H244.072ZM233.94 50.3756C233.736 53.8794 233.763 57.3931 234.021 60.8933C237.415 61.0565 240.814 61.0258 244.204 60.8014V50.345C240.784 50.1749 237.358 50.1988 233.94 50.4165V50.3756ZM234.021 48.3333C237.398 48.4864 240.78 48.4557 244.153 48.2414C244.359 44.7273 244.329 41.2031 244.062 37.6931H233.93C233.712 41.2647 233.739 44.8472 234.011 48.415L234.021 48.3333ZM234.021 23.2747C237.398 23.425 240.78 23.3978 244.153 23.193C244.359 19.6755 244.328 16.1479 244.062 12.6345H233.93C233.713 16.2061 233.74 19.7886 234.011 23.3564L234.021 23.2747ZM244.153 10.6229C244.302 7.14508 244.275 3.66189 244.072 0.186881C240.66 -0.0203264 237.237 0.010377 233.829 0.278779V10.6841C237.267 10.9116 240.718 10.8911 244.153 10.6229ZM256.139 198.511C256.293 195.03 256.266 191.544 256.058 188.065C252.642 187.858 249.216 187.889 245.805 188.157V198.573C249.246 198.8 252.7 198.78 256.139 198.511ZM245.876 175.689C245.719 179.17 245.742 182.657 245.947 186.135C249.362 186.348 252.788 186.317 256.2 186.043V175.689C252.762 175.452 249.313 175.452 245.876 175.689ZM245.987 173.647C249.363 173.807 252.746 173.78 256.119 173.565C256.324 170.048 256.294 166.52 256.028 163.007H245.896C245.69 166.551 245.721 170.106 245.987 173.647ZM256.048 150.518C252.672 150.357 249.289 150.385 245.916 150.6C245.71 154.117 245.741 157.645 246.007 161.158H256.139C256.348 157.624 256.318 154.079 256.048 150.549V150.518ZM245.916 138.111C245.754 139.633 245.815 147.741 245.987 148.547C249.403 148.757 252.828 148.73 256.24 148.466V138.05C252.787 137.842 249.324 137.872 245.876 138.142L245.916 138.111ZM246.017 123.55H256.149C256.373 120.014 256.373 116.467 256.149 112.93H246.017C245.778 116.486 245.764 120.054 245.977 123.611L246.017 123.55ZM256.281 110.898V107.375C256.281 106.221 256.281 105.068 256.281 103.914C256.327 102.746 256.306 101.577 256.22 100.411C252.786 100.238 249.346 100.272 245.916 100.513V111.011C249.356 111.194 252.804 111.167 256.24 110.929L256.281 110.898ZM256.21 98.3689C256.359 94.8877 256.332 91.4011 256.129 87.9227C252.716 87.7205 249.294 87.7512 245.886 88.0146V98.4302C249.324 98.6474 252.774 98.6269 256.21 98.3689ZM256.21 85.8396C256.362 82.362 256.338 78.8788 256.139 75.4036C252.727 75.1986 249.305 75.2259 245.896 75.4853V85.9009C249.331 86.1179 252.777 86.0974 256.21 85.8396ZM256.098 62.8334C252.722 62.6835 249.34 62.7107 245.967 62.9151C245.766 66.4294 245.797 69.9532 246.058 73.4635H256.19C256.377 69.9311 256.329 66.3901 256.048 62.8641L256.098 62.8334ZM245.967 50.4266C245.818 53.9044 245.845 57.3876 246.048 60.8626C249.46 61.07 252.883 61.0393 256.291 60.7707V50.396C252.852 50.1787 249.403 50.1991 245.967 50.4573V50.4266ZM256.098 37.785C252.722 37.6322 249.34 37.656 245.967 37.8565C245.766 41.3742 245.797 44.9014 246.058 48.415H256.19C256.405 44.8743 256.385 41.323 256.129 37.785H256.098ZM256.21 35.7428C256.362 32.2651 256.338 28.782 256.139 25.3068C252.727 25.0965 249.304 25.1238 245.896 25.3885V35.7938C249.331 36.0109 252.777 35.9905 256.21 35.7325V35.7428ZM246.078 23.336H256.21C256.434 19.803 256.434 16.2593 256.21 12.7264H246.078C245.855 16.2593 245.855 19.803 246.078 23.336ZM245.977 0.329824C245.828 3.80762 245.855 7.29079 246.058 10.7658C249.47 10.9678 252.893 10.9371 256.301 10.6739V0.289001C252.862 0.0719124 249.413 0.0923805 245.977 0.350266V0.329824ZM258.074 198.716C261.45 198.871 264.832 198.844 268.206 198.634C268.412 195.116 268.381 191.589 268.115 188.076H257.983C257.767 191.62 257.788 195.174 258.044 198.716H258.074ZM268.257 186.074C268.405 182.589 268.378 179.099 268.175 175.618C264.76 175.416 261.334 175.447 257.922 175.71V186.125C261.33 186.352 264.749 186.342 268.155 186.094L268.257 186.074ZM268.257 173.545C268.405 170.064 268.378 166.577 268.175 163.099C264.76 162.888 261.334 162.916 257.922 163.18V173.647C261.331 173.857 264.75 173.83 268.155 173.565L268.257 173.545ZM268.135 150.528C264.759 150.378 261.377 150.406 258.003 150.61C257.795 154.127 257.822 157.655 258.084 161.169H268.216C268.39 157.629 268.329 154.081 268.034 150.549L268.135 150.528ZM268.135 137.999C264.759 137.844 261.377 137.871 258.003 138.081C257.805 141.599 257.839 145.126 258.105 148.639H268.236C268.409 145.099 268.341 141.551 268.034 138.02L268.135 137.999ZM257.851 113.094C257.699 116.572 257.73 120.055 257.942 123.53C261.355 123.737 264.777 123.707 268.186 123.438V113.022C264.743 112.807 261.29 112.831 257.851 113.094ZM257.851 100.564C257.699 104.046 257.73 107.533 257.942 111.011C261.355 111.21 264.777 111.176 268.186 110.908V100.493C264.743 100.278 261.29 100.302 257.851 100.564ZM268.145 98.3995C268.297 94.9219 268.273 91.4387 268.074 87.9635C264.659 87.7533 261.233 87.7806 257.821 88.0452V98.4506C261.26 98.6656 264.709 98.6486 268.145 98.3995ZM257.861 75.5057C257.713 78.9835 257.74 82.4667 257.942 85.9417C261.355 86.1416 264.778 86.1041 268.186 85.8294V75.4546C264.747 75.2396 261.298 75.2566 257.861 75.5057ZM268.145 73.3409C268.307 71.7786 268.246 63.7116 268.074 62.9049C264.662 62.7029 261.239 62.7337 257.831 62.9968V73.4022C261.266 73.6193 264.712 73.5988 268.145 73.3409ZM257.861 25.4089C257.707 28.8866 257.734 32.37 257.942 35.8449C261.355 36.0493 264.778 36.0152 268.186 35.7428V25.3374C264.747 25.1178 261.297 25.1417 257.861 25.4089ZM268.155 12.8285C264.724 12.6033 261.282 12.6033 257.851 12.8285V23.3258H268.155V12.8285ZM268.034 0.227735C264.657 0.0777993 261.275 0.105053 257.902 0.309412C257.698 3.82348 257.726 7.34724 257.983 10.8577H268.115C268.323 7.31653 268.296 3.76527 268.034 0.227735ZM292.35 98.3893C292.501 94.9114 292.471 91.4279 292.258 87.9533C288.849 87.7508 285.43 87.7815 282.025 88.0452V98.4608C285.464 98.6754 288.914 98.6515 292.35 98.3893ZM282.167 111.031C285.543 111.181 288.925 111.161 292.299 110.97C292.502 107.452 292.475 103.925 292.218 100.411H282.086C281.885 103.949 281.909 107.496 282.157 111.031H282.167ZM282.046 125.654C281.886 129.131 281.913 132.615 282.127 136.09C285.539 136.292 288.962 136.261 292.37 135.998V125.551C288.931 125.332 285.481 125.356 282.046 125.623V125.654ZM292.177 138.05C288.801 137.9 285.419 137.927 282.046 138.132C281.848 141.65 281.882 145.177 282.147 148.69H292.279C292.496 145.136 292.476 141.571 292.218 138.02L292.177 138.05ZM282.117 161.179C285.493 161.339 288.875 161.312 292.248 161.097C292.449 157.583 292.418 154.059 292.157 150.549H282.025C281.835 154.081 281.879 157.622 282.157 161.148L282.117 161.179ZM282.117 173.708C285.493 173.861 288.875 173.837 292.248 173.637C292.457 170.116 292.43 166.585 292.167 163.068H282.036C281.843 166.593 281.884 170.127 282.157 173.647L282.117 173.708ZM280.192 138.05C276.815 137.9 273.433 137.927 270.06 138.132C269.854 141.649 269.885 145.177 270.151 148.69H280.283C280.498 145.146 280.478 141.592 280.222 138.05H280.192ZM282.066 175.628C281.847 179.164 281.847 182.711 282.066 186.248H292.258V175.628H282.066ZM292.198 12.7877C288.784 12.6262 285.364 12.6637 281.955 12.9V16.3923C281.955 17.5462 281.955 18.7 281.955 19.8539C281.955 21.0078 281.894 22.2025 282.015 23.3462C285.425 23.5379 288.844 23.5004 292.248 23.2339C292.473 19.7449 292.463 16.2446 292.218 12.757L292.198 12.7877ZM257.851 37.9382C257.825 38.0419 257.808 38.1479 257.801 38.2547C257.801 41.3794 257.801 44.5143 257.801 47.639C257.824 47.8757 257.875 48.1088 257.953 48.3333C261.356 48.5745 264.772 48.5745 268.175 48.3333V37.8361C264.737 37.6168 261.287 37.6407 257.851 37.9076V37.9382ZM257.851 50.4573C257.822 50.5257 257.801 50.5979 257.79 50.6717C257.79 53.8372 257.79 57.0028 257.79 60.1683C257.814 60.405 257.865 60.6381 257.942 60.8626C261.35 61.0868 264.77 61.0698 268.175 60.8116V50.396C264.74 50.1739 261.294 50.1944 257.861 50.4573H257.851ZM282.036 25.4089C281.875 28.8864 281.903 32.3702 282.117 35.8449C285.455 36.0497 288.803 36.0156 292.137 35.7428V25.3374C288.762 25.1212 285.377 25.1451 282.005 25.4089H282.036ZM282.036 37.9382C281.875 41.416 281.909 44.9002 282.137 48.3742C285.472 48.5795 288.817 48.5454 292.147 48.2721V37.8361C288.772 37.6178 285.386 37.645 282.015 37.9178L282.036 37.9382ZM292.096 73.3409C292.248 69.8633 292.224 66.3801 292.025 62.9049C288.687 62.7028 285.339 62.7335 282.005 62.9968V73.4022C285.366 73.6194 288.738 73.5989 292.096 73.3409ZM280.131 23.2339C280.28 19.7561 280.253 16.2729 280.05 12.7979C276.712 12.5957 273.364 12.6264 270.03 12.8898V23.2951C273.394 23.5125 276.769 23.492 280.131 23.2339ZM270.06 25.3987C269.908 26.9712 269.959 35.028 270.141 35.8347C273.479 36.0398 276.827 36.0124 280.161 35.753V25.3476C276.797 25.1326 273.422 25.1497 270.06 25.3987ZM280.131 48.2823C280.28 44.8045 280.253 41.3213 280.05 37.8463C276.712 37.6439 273.364 37.6746 270.03 37.9382V48.3537C273.394 48.5682 276.77 48.5444 280.131 48.2823ZM280.131 85.86C280.285 82.3823 280.258 78.8988 280.05 75.424C276.711 75.2244 273.363 75.2586 270.03 75.5261V85.9315C273.404 86.1527 276.79 86.1289 280.161 85.86H280.131ZM270.111 87.9942C269.911 91.4979 269.932 95.0107 270.171 98.5119C273.494 98.6558 276.821 98.6285 280.141 98.4302V87.9431C276.799 87.7842 273.451 87.8012 270.111 87.9942ZM318.591 163.864V166.928C318.591 167.949 318.591 168.97 318.591 170.063C318.54 171.085 318.573 172.11 318.692 173.126C318.897 173.19 319.107 173.234 319.32 173.259H327.193C327.419 173.216 327.64 173.148 327.851 173.055V163.732C324.766 163.55 321.672 163.584 318.591 163.834V163.864ZM315.926 183.266V180.917C315.926 180.141 315.926 179.355 315.926 178.579C316.022 177.814 315.974 177.038 315.784 176.292C312.729 176.116 309.664 176.16 306.615 176.424V179.488C306.615 180.509 306.615 181.53 306.615 182.623C306.55 183.645 306.584 184.671 306.716 185.686C309.785 185.942 312.871 185.921 315.936 185.625V183.276L315.926 183.266ZM309.847 173.33C310.86 173.33 311.873 173.33 312.836 173.33C313.806 173.392 314.78 173.362 315.744 173.238C315.999 170.109 316.016 166.965 315.794 163.834C312.758 163.617 309.708 163.644 306.676 163.915C306.49 167.056 306.541 170.207 306.828 173.341L309.847 173.33ZM327.446 160.76C327.557 160.76 327.699 160.638 327.8 160.587C328.008 157.478 327.991 154.359 327.75 151.253C324.711 151.097 321.666 151.124 318.631 151.335V160.76C321.556 160.483 324.499 160.473 327.426 160.73L327.446 160.76ZM294.842 185.849C297.659 185.849 300.496 185.849 303.332 185.849C303.545 185.849 303.758 185.635 303.849 185.584C303.687 182.523 303.687 179.455 303.849 176.394C300.813 176.201 297.769 176.181 294.731 176.332C294.522 179.509 294.549 182.697 294.812 185.87L294.842 185.849ZM342.988 60.301C345.967 60.301 348.976 60.301 351.965 60.25C352.182 57.1486 352.159 54.0348 351.894 50.9372H342.897C342.68 54.056 342.711 57.1872 342.988 60.301ZM352.025 72.6261C352.175 69.5978 352.148 66.5632 351.944 63.538C348.907 63.3284 345.859 63.3557 342.826 63.6197V72.6874C345.896 72.905 348.978 72.8846 352.046 72.6261H352.025ZM352.025 85.2065C352.23 82.1249 352.2 79.0319 351.934 75.955H342.876V85.2575C345.914 85.4156 348.959 85.3986 351.995 85.2065H352.025ZM342.907 88.6681C342.76 91.6998 342.784 94.7374 342.978 97.7664C346.015 97.9677 349.063 97.937 352.096 97.6745V88.6069C349.029 88.3895 345.95 88.41 342.887 88.6681H342.907ZM352.157 135.242C352.157 132.24 352.157 129.197 352.157 126.185C349.077 125.965 345.984 125.989 342.907 126.256V135.324C346.001 135.55 349.108 135.522 352.198 135.242H352.157ZM342.927 38.4181C342.748 41.4789 342.748 44.5476 342.927 47.6083C345.964 47.8125 349.012 47.7852 352.046 47.5266V38.3364C348.905 38.3875 345.865 38.2854 342.856 38.3977L342.927 38.4181ZM294.619 163.885C294.619 166.948 294.619 170.083 294.619 173.167C297.655 173.392 300.705 173.371 303.738 173.106V163.813C300.701 163.583 297.651 163.607 294.619 163.885ZM318.652 138.816C318.499 141.848 318.529 144.886 318.743 147.914C321.78 148.122 324.829 148.091 327.861 147.822V138.745C324.794 138.53 321.715 138.554 318.652 138.816ZM315.855 147.833C316.009 144.77 315.972 141.7 315.744 138.642C312.704 138.693 309.665 138.581 306.625 138.714V147.904C309.699 148.125 312.785 148.101 315.855 147.833ZM315.734 88.6069C312.729 88.456 309.718 88.4833 306.716 88.6885C306.516 91.7499 306.547 94.8221 306.808 97.8787H315.794C316.01 94.7843 315.99 91.6777 315.734 88.5864V88.6069ZM315.865 126.113C312.725 126.113 309.715 126.062 306.747 126.113C306.532 129.218 306.559 132.335 306.828 135.436H315.946C315.946 132.26 316.007 129.197 315.875 126.072L315.865 126.113ZM351.985 147.884C352.19 144.823 352.163 141.75 351.904 138.693C348.865 138.533 345.819 138.571 342.785 138.806V147.996C345.823 148.168 348.869 148.14 351.904 147.914L351.985 147.884ZM339.715 163.752C336.778 163.601 333.835 163.622 330.901 163.813C330.697 166.96 330.725 170.117 330.982 173.259H339.715C339.945 170.094 339.945 166.917 339.715 163.752ZM294.68 160.689C297.656 160.487 300.643 160.511 303.616 160.76C303.838 157.577 303.804 154.38 303.515 151.202H294.68V160.689ZM318.874 51.1108C318.724 54.1426 318.751 57.1806 318.955 60.2091C321.926 60.4092 324.907 60.375 327.871 60.107V51.1108C324.875 50.8957 321.867 50.9196 318.874 51.1823V51.1108ZM318.874 88.6783C318.723 91.7099 318.746 94.7478 318.945 97.7766C321.915 97.9818 324.896 97.9545 327.861 97.6949V88.6273C324.869 88.4121 321.864 88.4291 318.874 88.6783ZM318.874 76.1592C318.72 79.2217 318.75 82.2907 318.966 85.3494C321.904 85.3494 324.862 85.4107 327.861 85.2882V76.098C324.868 75.8855 321.864 75.906 318.874 76.1592ZM327.831 72.6465C327.983 69.6147 327.953 66.5763 327.74 63.5482C324.773 63.3432 321.795 63.3774 318.834 63.6503V72.718C321.833 72.9405 324.845 72.9234 327.841 72.6669L327.831 72.6465ZM318.793 126.287C318.793 129.299 318.743 132.332 318.793 135.344C321.799 135.566 324.818 135.546 327.821 135.283V126.205C324.801 125.984 321.768 126.011 318.753 126.287H318.793ZM339.715 138.632C336.797 138.632 333.859 138.632 330.951 138.632C330.731 141.747 330.751 144.874 331.012 147.986H339.796C340.016 144.871 339.989 141.743 339.715 138.632ZM339.715 113.574C336.797 113.574 333.869 113.574 330.951 113.574C330.736 116.688 330.756 119.815 331.012 122.927H339.796C340.01 119.808 339.983 116.678 339.715 113.563V113.574ZM331.012 97.8481C333.983 98.0047 336.962 97.9672 339.928 97.7358C339.928 94.6724 339.989 91.609 339.867 88.5456H330.941C330.723 91.643 330.736 94.7527 330.982 97.8481H331.012ZM330.891 76.1796C330.739 79.2423 330.773 82.3114 330.992 85.3698C333.93 85.3698 336.889 85.4311 339.888 85.3188V76.1286C336.882 75.906 333.863 75.923 330.86 76.1796H330.891ZM339.867 50.9372C336.828 50.9372 333.869 50.9372 330.962 50.9372C330.738 54.0483 330.755 57.1722 331.012 60.2806H339.928C339.857 57.1253 339.958 54.0721 339.837 50.9372H339.867ZM339.715 38.4181C336.797 38.4181 333.859 38.4181 330.951 38.4181C330.734 41.5297 330.757 44.6537 331.022 47.7615H339.796C340.011 44.6463 339.984 41.5189 339.715 38.4079V38.4181ZM294.72 138.806V147.884C297.715 148.115 300.723 148.115 303.717 147.884V138.887C300.717 138.577 297.695 138.55 294.69 138.806H294.72ZM294.65 126.307C294.65 129.319 294.65 132.352 294.65 135.365C297.656 135.584 300.674 135.56 303.677 135.293V126.225C300.657 126.004 297.624 126.032 294.609 126.307H294.65ZM306.706 26.0828C306.551 29.111 306.578 32.146 306.787 35.1709C309.754 35.3794 312.732 35.3486 315.693 35.079V26.0114C312.701 25.7909 309.695 25.8148 306.706 26.0828ZM306.848 47.7921C309.756 47.7921 312.694 47.7921 315.602 47.7921C315.825 44.6841 315.801 41.5631 315.531 38.459H306.767C306.547 41.5706 306.574 44.695 306.848 47.8024V47.7921ZM315.663 85.1963C315.812 82.1645 315.785 79.1265 315.582 76.098C312.615 75.8955 309.638 75.9262 306.676 76.1899V85.2575C309.668 85.4751 312.673 85.4547 315.663 85.1963ZM294.72 101.228V110.418C297.76 110.418 300.708 110.469 303.707 110.357V101.228C300.708 100.945 297.689 100.945 294.69 101.228H294.72ZM294.72 88.709C294.571 91.7407 294.598 94.7787 294.802 97.8073C297.771 98.0099 300.752 97.9792 303.717 97.7154V88.6477C300.711 88.4283 297.693 88.4488 294.69 88.709H294.72ZM294.72 63.6606C294.57 66.6889 294.598 69.7235 294.802 72.7486C297.771 72.9567 300.753 72.926 303.717 72.6567V63.5891C300.711 63.3673 297.692 63.3912 294.69 63.6606H294.72ZM294.72 51.1312C294.568 54.1631 294.598 57.2014 294.812 60.2295C297.778 60.4296 300.756 60.3955 303.717 60.1274V51.1108C300.721 50.8955 297.713 50.9194 294.72 51.1823V51.1312ZM294.72 38.6019C294.57 41.6337 294.597 44.6717 294.802 47.7002C297.771 47.9034 300.752 47.8727 303.717 47.6083V38.5407C300.722 38.3225 297.713 38.343 294.72 38.6019ZM294.65 13.5637C294.65 16.5761 294.65 19.6089 294.65 22.7539C297.689 22.7029 300.729 22.805 303.677 22.6927V13.5025C300.661 13.2755 297.632 13.2959 294.619 13.5637H294.65ZM362.532 96.1632C362.675 94.177 362.651 92.1821 362.461 90.1998C360.438 89.9896 358.398 90.017 356.382 90.2815V96.2143C358.4 96.4284 360.436 96.4112 362.451 96.1632H362.532ZM356.453 65.2127V71.1557C358.475 71.3682 360.514 71.3511 362.532 71.1046V65.2433C360.49 64.9472 358.417 64.9369 356.372 65.2127H356.453ZM386.716 58.5753C386.86 56.589 386.836 54.5941 386.645 52.6119C384.622 52.4104 382.583 52.4412 380.566 52.7038V58.6366C382.585 58.8474 384.621 58.8268 386.635 58.5753H386.716ZM386.605 65.1004H380.708C380.485 67.1365 380.485 69.1911 380.708 71.2272H386.534C386.802 69.1936 386.798 67.133 386.524 65.1004H386.605ZM386.686 83.6646C386.88 81.6524 386.849 79.6247 386.595 77.6194C384.61 77.4658 382.616 77.4999 380.637 77.7216V83.7871C382.662 83.9499 384.697 83.9225 386.716 83.7054L386.686 83.6646ZM398.479 65.1105C396.509 64.9648 394.529 64.9853 392.562 65.1718C392.362 67.2105 392.386 69.2652 392.633 71.2986H398.52C398.735 69.2408 398.721 67.1653 398.479 65.1105ZM362.309 52.571C360.338 52.4238 358.358 52.4512 356.392 52.6527C356.192 54.6746 356.219 56.7128 356.473 58.7285H362.36C362.58 56.6816 362.573 54.6164 362.339 52.571H362.309ZM374.406 83.6339C374.553 81.6442 374.525 79.6453 374.325 77.6603C372.393 77.461 370.445 77.4918 368.52 77.7522V83.6952C370.477 83.9097 372.453 83.8891 374.406 83.6339ZM374.285 90.1488C372.388 90.0066 370.483 90.0339 368.591 90.2305C368.39 92.2696 368.421 94.3251 368.682 96.3573H374.345C374.571 94.2934 374.561 92.2103 374.315 90.1488H374.285ZM374.406 47.496C374.547 45.5061 374.52 43.5077 374.325 41.5224C372.393 41.3238 370.445 41.3547 368.52 41.6143V47.5471C370.487 47.7611 372.473 47.744 374.437 47.496H374.406ZM368.54 65.2331C368.385 67.2196 368.419 69.2165 368.641 71.1965C370.57 71.3948 372.516 71.3605 374.437 71.0944V65.1514C372.475 64.9356 370.495 64.963 368.54 65.2331ZM442.218 69.7261C443.296 69.785 444.377 69.7509 445.45 69.624C445.539 68.5613 445.501 67.4917 445.338 66.438C444.292 66.311 443.234 66.311 442.187 66.438C442.106 67.5189 442.106 68.6044 442.187 69.6852L442.218 69.7261ZM409.239 69.675V66.6116C408.168 66.5755 407.095 66.6062 406.027 66.7035V69.675C407.105 69.7791 408.191 69.7791 409.269 69.675H409.239ZM409.239 82.1533V79.192C408.174 79.1002 407.103 79.1002 406.037 79.192V82.2554C407.106 82.3037 408.176 82.2695 409.239 82.1533ZM409.239 57.1355C409.371 56.1392 409.371 55.1297 409.239 54.1334H406.078V57.1355H409.239ZM421.225 60.9852V57.9218C420.211 57.8439 419.191 57.8815 418.185 58.0341V60.975C419.206 61.079 420.234 61.0825 421.255 60.9852H421.225ZM421.225 69.6138V66.6014C420.21 66.534 419.192 66.5716 418.185 66.7137V69.7771C419.211 69.8313 420.24 69.7765 421.255 69.6138H421.225ZM351.478 113.226V110.275C350.417 110.178 349.348 110.178 348.287 110.275V113.339C349.352 113.389 350.419 113.351 351.478 113.226ZM351.873 151.182C349.903 151.036 347.924 151.056 345.956 151.243C345.746 153.281 345.77 155.337 346.027 157.37H351.873C352.097 155.334 352.097 153.279 351.873 151.243V151.182ZM214.376 24.0406C214.118 20.5403 214.091 17.0267 214.295 13.5229C217.476 13.3184 220.665 13.2775 223.849 13.4004V0.125615C223.126 0.107209 222.404 0.207194 221.711 0.421722C160.557 20.4155 99.4287 40.4502 38.3278 60.5257C26.2306 64.4877 14.1333 68.4292 2.0361 72.3504C1.50926 72.524 1.02294 72.7486 0.00976562 73.1469C1.27623 73.5655 2.09689 73.8821 2.94795 74.168L205.369 131.995C210.769 133.537 216.149 135.109 221.58 136.498C222.342 136.687 223.125 136.783 223.91 136.784V111.051C221.782 111.194 215.936 111.225 214.437 111.051C214.179 107.551 214.152 104.038 214.356 100.534C217.536 100.329 220.725 100.288 223.91 100.411V48.8643C221.782 49.0073 215.936 49.0379 214.437 48.8643C214.179 45.3641 214.152 41.8505 214.356 38.3466C217.536 38.1421 220.725 38.1012 223.91 38.2241V24.0201C221.722 24.1631 215.876 24.1937 214.376 24.0406ZM211.661 73.6574C208.271 73.8857 204.872 73.9198 201.479 73.7596C201.22 70.2594 201.193 66.7457 201.397 63.2419C204.815 63.0255 208.241 62.9982 211.661 63.1602V73.6574ZM211.661 60.8626C208.271 61.087 204.872 61.1178 201.479 60.9546C201.22 57.4544 201.193 53.9407 201.397 50.4369C204.815 50.2192 208.241 50.1954 211.661 50.3654V60.8626ZM214.376 186.207C214.118 182.707 214.091 179.193 214.295 175.689C217.476 175.485 220.665 175.444 223.849 175.567V142.941C223.055 142.956 222.263 142.853 221.499 142.635C183.87 131.995 146.274 121.283 108.713 110.5C107.963 110.286 107.203 110.143 106.17 109.897C104.447 122.151 102.583 134.006 101.205 145.933C100.476 152.152 103.546 157.36 107.284 162.016C113.627 169.838 121.914 175.076 130.749 179.508C147.912 188.116 166.21 192.783 185.065 195.703C197.901 197.669 210.866 198.645 223.849 198.624V186.186C221.722 186.319 215.876 186.35 214.376 186.186V186.207ZM211.661 173.575C208.271 173.804 204.872 173.838 201.479 173.678C201.22 170.177 201.193 166.664 201.397 163.16C204.815 162.942 208.241 162.918 211.661 163.088V173.575Z" fill="url(#paint0_linear)"/>
<defs>
<linearGradient id="paint0_linear" x1="-1.40016" y1="129.194" x2="444.171" y2="129.194" gradientUnits="userSpaceOnUse">
<stop stop-color="#8A511C"/>
<stop offset="0.23" stop-color="#AB821D"/>
<stop offset="0.43" stop-color="#F7F67E"/>
<stop offset="0.53" stop-color="#F7F67E"/>
<stop offset="0.58" stop-color="#F7F67E"/>
<stop offset="0.82" stop-color="#AB821D"/>
<stop offset="1" stop-color="#8A511C"/>
</linearGradient>
</defs>
</svg>
