<svg width="190" height="190" viewBox="0 0 190 190" fill="none" xmlns="http://www.w3.org/2000/svg">
<path d="M120.84 64.505L80.085 105.355L64.41 89.68C63.5584 88.6855 62.5104 87.8778 61.3318 87.3076C60.1531 86.7374 58.8694 86.417 57.561 86.3664C56.2527 86.3159 54.9481 86.5363 53.729 87.0139C52.5099 87.4916 51.4027 88.216 50.4769 89.1418C49.551 90.0676 48.8266 91.1749 48.349 92.3939C47.8714 93.613 47.6509 94.9177 47.7015 96.226C47.752 97.5343 48.0724 98.8181 48.6427 99.9967C49.2129 101.175 50.0206 102.223 51.015 103.075L73.34 125.495C74.2277 126.375 75.2805 127.072 76.4379 127.545C77.5954 128.018 78.8348 128.257 80.085 128.25C82.5773 128.24 84.9656 127.25 86.735 125.495L134.235 77.995C135.125 77.1119 135.832 76.0611 136.315 74.9035C136.797 73.7458 137.045 72.5041 137.045 71.25C137.045 69.9959 136.797 68.7542 136.315 67.5965C135.832 66.4389 135.125 65.3881 134.235 64.505C132.455 62.7356 130.047 61.7425 127.538 61.7425C125.028 61.7425 122.62 62.7356 120.84 64.505ZM95 0C76.2108 0 57.8435 5.57165 42.2209 16.0104C26.5982 26.4491 14.4218 41.2861 7.23149 58.6451C0.041162 76.0041 -1.84015 95.1054 1.82544 113.534C5.49104 131.962 14.5389 148.889 27.8249 162.175C41.1109 175.461 58.0383 184.509 76.4665 188.175C94.8947 191.84 113.996 189.959 131.355 182.769C148.714 175.578 163.551 163.402 173.99 147.779C184.428 132.156 190 113.789 190 95C190 82.5244 187.543 70.171 182.769 58.6451C177.994 47.1191 170.997 36.6464 162.175 27.8249C153.354 19.0033 142.881 12.0056 131.355 7.23144C119.829 2.45725 107.476 0 95 0ZM95 171C79.9687 171 65.2748 166.543 52.7767 158.192C40.2786 149.841 30.5375 137.971 24.7852 124.084C19.0329 110.197 17.5279 94.9157 20.4604 80.1731C23.3928 65.4306 30.6311 51.8887 41.2599 41.2599C51.8887 30.6311 65.4306 23.3928 80.1732 20.4603C94.9157 17.5278 110.197 19.0329 124.084 24.7852C137.971 30.5374 149.841 40.2785 158.192 52.7767C166.543 65.2748 171 79.9686 171 95C171 115.156 162.993 134.487 148.74 148.74C134.487 162.993 115.157 171 95 171Z" fill="#C6A67D"/>
</svg>
