<svg width="24" height="23" viewBox="0 0 24 23" fill="none" xmlns="http://www.w3.org/2000/svg">
<path fill-rule="evenodd" clip-rule="evenodd" d="M0.465513 20.4138C-0.134382 20.9851 -0.157539 21.9346 0.41379 22.5345C0.985119 23.1344 1.93458 23.1575 2.53448 22.5862L12 13.5714L21.4655 22.5862C22.0654 23.1575 23.0149 23.1344 23.5862 22.5345C24.1575 21.9346 24.1344 20.9851 23.5345 20.4138L14.175 11.5L23.5345 2.58621C24.1344 2.01488 24.1575 1.06542 23.5862 0.46552C23.0149 -0.134376 22.0654 -0.157533 21.4655 0.413796L12 9.42857L2.53448 0.413796C1.93458 -0.157533 0.985117 -0.134376 0.413788 0.46552C-0.157539 1.06542 -0.134382 2.01488 0.465513 2.58621L9.825 11.5L0.465513 20.4138Z" fill="#C6A67D"/>
</svg>
