<svg width="26" height="26" viewBox="0 0 26 26" fill="none" xmlns="http://www.w3.org/2000/svg">
<path d="M24.1198 0.5H1.88021C1.11771 0.5 0.5 1.11771 0.5 1.88021V24.1208C0.5 24.8823 1.11771 25.5 1.88021 25.5H13.8542V15.8187H10.5958V12.0458H13.8542V9.26354C13.8542 6.03438 15.826 4.27604 18.7073 4.27604C20.0875 4.27604 21.2729 4.37917 21.6188 4.425V7.8L19.6208 7.80104C18.0542 7.80104 17.751 8.54583 17.751 9.6375V12.0469H21.4875L21.001 15.8198H17.751V25.5H24.1219C24.8823 25.5 25.5 24.8823 25.5 24.1198V1.88021C25.5 1.11771 24.8823 0.5 24.1198 0.5V0.5Z" fill="#C6A67D"/>
</svg>
