<svg width="27" height="20" viewBox="0 0 27 20" fill="none" xmlns="http://www.w3.org/2000/svg">
<path d="M25.9394 3.6999C25.7003 2.38037 24.5612 1.41943 23.2394 1.11943C21.2612 0.699902 17.6003 0.399902 13.6394 0.399902C9.68076 0.399902 5.96123 0.699902 3.98076 1.11943C2.66123 1.41943 1.51982 2.31943 1.28076 3.6999C1.03936 5.1999 0.800293 7.2999 0.800293 9.9999C0.800293 12.6999 1.03936 14.7999 1.33936 16.2999C1.58076 17.6194 2.71982 18.5804 4.03936 18.8804C6.13936 19.2999 9.73936 19.5999 13.7003 19.5999C17.6612 19.5999 21.2612 19.2999 23.3612 18.8804C24.6808 18.5804 25.8198 17.6804 26.0612 16.2999C26.3003 14.7999 26.6003 12.639 26.6612 9.9999C26.5394 7.2999 26.2394 5.1999 25.9394 3.6999ZM10.4003 14.1999V5.7999L17.7198 9.9999L10.4003 14.1999Z" fill="#C6A67D"/>
</svg>
